<svg id="Layer_1" data-name="Layer 1" xmlns="http://www.w3.org/2000/svg" xmlns:xlink="http://www.w3.org/1999/xlink" viewBox="0 0 296.11 47.81"><defs><clipPath id="clip-path"><rect x="1.34" y="0.98" width="293.42" height="45.85" fill="none"/></clipPath></defs><g clip-path="url(#clip-path)"><path d="M24.27,1A22.93,22.93,0,1,0,47.19,23.9,22.93,22.93,0,0,0,24.27,1M35.19,28.57a11.86,11.86,0,0,1-6.28,6.28,11.59,11.59,0,0,1-4.64.94h0a11.66,11.66,0,0,1-4.64-.94,12.21,12.21,0,0,1-3.75-2.53,12.39,12.39,0,0,1-2.53-3.75,11.62,11.62,0,0,1-.93-4.64,11.47,11.47,0,0,1,.94-4.65,12.4,12.4,0,0,1,2.52-3.77A11.92,11.92,0,0,1,19.62,13a11.95,11.95,0,0,1,9.29,0,11.92,11.92,0,0,1,3.75,2.55,12.43,12.43,0,0,1,2.53,3.77,11.95,11.95,0,0,1,0,9.29" fill="#e20613"/><path d="M21.62,30.2a6.7,6.7,0,0,0,5.29,0,6.88,6.88,0,0,0,3.63-3.64,6.71,6.71,0,0,0,0-5.31,7,7,0,0,0-1.46-2.17,6.82,6.82,0,0,0-2.17-1.47,6.37,6.37,0,0,0-2.64-.55,6.45,6.45,0,0,0-2.65.55,6.89,6.89,0,0,0-2.16,1.47A7,7,0,0,0,18,21.25a6.8,6.8,0,0,0,0,5.31,7,7,0,0,0,1.47,2.17,6.83,6.83,0,0,0,2.16,1.47" fill="#e20613"/><path d="M271.85,1A22.93,22.93,0,1,0,294.77,23.9,22.92,22.92,0,0,0,271.85,1m10.92,27.59a12.39,12.39,0,0,1-2.53,3.75,12,12,0,0,1-3.75,2.53,11.64,11.64,0,0,1-4.65.94h0a11.59,11.59,0,0,1-4.64-.94,11.86,11.86,0,0,1-6.28-6.28,12.07,12.07,0,0,1,0-9.29,12.43,12.43,0,0,1,2.53-3.77A11.92,11.92,0,0,1,267.2,13a11.95,11.95,0,0,1,9.29,0,11.92,11.92,0,0,1,3.75,2.55,12.61,12.61,0,0,1,2.53,3.77,12.07,12.07,0,0,1,0,9.29" fill="#e20613"/><path d="M269.2,30.2a6.7,6.7,0,0,0,5.29,0,7,7,0,0,0,3.63-3.64,6.71,6.71,0,0,0,0-5.31,7,7,0,0,0-1.47-2.17,6.78,6.78,0,0,0-2.16-1.47,6.64,6.64,0,0,0-5.29,0A6.94,6.94,0,0,0,267,19.08a7.14,7.14,0,0,0-1.46,2.17,6.68,6.68,0,0,0,0,5.31A7.14,7.14,0,0,0,267,28.73a7,7,0,0,0,2.17,1.47" fill="#e20613"/><path d="M230.58,1A22.93,22.93,0,1,0,253.51,23.9,22.92,22.92,0,0,0,230.58,1M241.5,28.57A12.18,12.18,0,0,1,239,32.32a12,12,0,0,1-3.75,2.53,11.67,11.67,0,0,1-4.65.94h0a11.59,11.59,0,0,1-4.64-.94,11.86,11.86,0,0,1-6.28-6.28,11.95,11.95,0,0,1,0-9.29,12.25,12.25,0,0,1,2.53-3.77A11.92,11.92,0,0,1,225.94,13a11.95,11.95,0,0,1,9.29,0A11.92,11.92,0,0,1,239,15.51a12.4,12.4,0,0,1,2.52,3.77,11.95,11.95,0,0,1,0,9.29" fill="#e20613"/><path d="M227.94,30.2a6.7,6.7,0,0,0,5.29,0,7.07,7.07,0,0,0,2.16-1.47,7.17,7.17,0,0,0,1.47-2.17,6.8,6.8,0,0,0,0-5.31,7.17,7.17,0,0,0-1.47-2.17,6.89,6.89,0,0,0-2.16-1.47,6.45,6.45,0,0,0-2.65-.55,6.37,6.37,0,0,0-2.64.55,6.82,6.82,0,0,0-2.17,1.47,7,7,0,0,0-1.46,2.17,6.68,6.68,0,0,0,0,5.31,6.88,6.88,0,0,0,3.63,3.64" fill="#e20613"/><path d="M65.53,1A22.93,22.93,0,1,0,88.45,23.9,22.92,22.92,0,0,0,65.53,1M76.45,28.57a12,12,0,0,1-2.53,3.75,11.81,11.81,0,0,1-3.75,2.53,11.59,11.59,0,0,1-4.64.94h0a11.59,11.59,0,0,1-4.64-.94,11.86,11.86,0,0,1-6.28-6.28,11.95,11.95,0,0,1,0-9.29,12.25,12.25,0,0,1,2.53-3.77A11.81,11.81,0,0,1,60.89,13a11.81,11.81,0,0,1,13,2.55,12.25,12.25,0,0,1,2.53,3.77,11.95,11.95,0,0,1,0,9.29" fill="#e20613"/><path d="M62.88,30.2a6.73,6.73,0,0,0,5.3,0,7.07,7.07,0,0,0,2.16-1.47,7.17,7.17,0,0,0,1.47-2.17,6.75,6.75,0,0,0,0-5.31,7,7,0,0,0-1.46-2.17,6.89,6.89,0,0,0-2.16-1.47,6.66,6.66,0,0,0-5.3,0,6.89,6.89,0,0,0-2.16,1.47,7.17,7.17,0,0,0-1.47,2.17,6.8,6.8,0,0,0,0,5.31,7.17,7.17,0,0,0,1.47,2.17,7.07,7.07,0,0,0,2.16,1.47" fill="#e20613"/><path d="M106.79,1A22.93,22.93,0,1,0,129.72,23.9,22.92,22.92,0,0,0,106.79,1m6.77,21.8,0-.15a6.13,6.13,0,0,0-.43-1.47A7.22,7.22,0,0,0,111.64,19a7,7,0,0,0-2.17-1.46,6.75,6.75,0,0,0-5.29,0,6.81,6.81,0,0,0-3.63,3.63A6.21,6.21,0,0,0,100,23.5l0,.18v11.4H95V23.81a11.84,11.84,0,0,1,.92-4.68,11.49,11.49,0,0,1,2.53-3.75A11.9,11.9,0,0,1,106.82,12a11.67,11.67,0,0,1,4.65.94,12,12,0,0,1,3.75,2.53,12.39,12.39,0,0,1,2.53,3.75,11.42,11.42,0,0,1,.87,3.4l0,.21Z" fill="#e20613"/><path d="M148.08,16.91c-2.79.09-4.76,1-5.86,2.84v0h11.65v0c-1.1-1.85-3-2.81-5.77-2.84" fill="#e20613"/><path d="M148.06,1A22.93,22.93,0,1,0,171,23.9,22.93,22.93,0,0,0,148.06,1m-6.85,23.19a6.29,6.29,0,0,0,.62,2.54,6.9,6.9,0,0,0,1.48,2.05,7.09,7.09,0,0,0,8.62.77,6.53,6.53,0,0,0,2.31-2.87l0-.12h5.52l-.08.25a14.71,14.71,0,0,1-1.88,4,10.94,10.94,0,0,1-6.17,4.43,13.82,13.82,0,0,1-3.64.5,11.67,11.67,0,0,1-4.65-.94,12.2,12.2,0,0,1-3.76-2.53,11.71,11.71,0,0,1-3.45-8.39,11.82,11.82,0,0,1,3.45-8.39,12.2,12.2,0,0,1,3.76-2.53A12.29,12.29,0,0,1,153,13a11.36,11.36,0,0,1,3.71,2.69,12.36,12.36,0,0,1,2.38,3.88,13.65,13.65,0,0,1,.89,4.43v.2H141.21Z" fill="#e20613"/><path d="M194.27,28.68A7.38,7.38,0,0,1,192,30.19a6.89,6.89,0,0,1-5.44,0,7.38,7.38,0,0,1-2.23-1.51,7.3,7.3,0,0,1-1.5-2.22,6.8,6.8,0,0,1,0-5.45,7,7,0,0,1,3.73-3.73,6.86,6.86,0,0,1,5.44,0A7,7,0,0,1,195.77,21a6.91,6.91,0,0,1,0,5.45,7.43,7.43,0,0,1-1.5,2.22" fill="#e20613"/><path d="M201.18,4.3V23.73a11.89,11.89,0,0,1-.92,4.69,11.29,11.29,0,0,1-2.53,3.75A11.79,11.79,0,0,1,194,34.68a11.92,11.92,0,0,1-4.64.91,11.58,11.58,0,0,1-4.64-.93,11.86,11.86,0,0,1-6.28-6.28,11.95,11.95,0,0,1,0-9.29,11.86,11.86,0,0,1,6.28-6.28,11.59,11.59,0,0,1,4.64-.94,9,9,0,0,1,1.92.22,13.72,13.72,0,0,1,1.85.57,11.84,11.84,0,0,1,1.68.8,8.26,8.26,0,0,1,1.35,1l0,0V2a23,23,0,1,0,5,2.28" fill="#e20613"/></g></svg>